<?xml version="1.0" encoding="UTF-8" standalone="no"?>
<svg
   xmlns:dc="http://purl.org/dc/elements/1.1/"
   xmlns:cc="http://creativecommons.org/ns#"
   xmlns:rdf="http://www.w3.org/1999/02/22-rdf-syntax-ns#"
   xmlns:svg="http://www.w3.org/2000/svg"
   xmlns="http://www.w3.org/2000/svg"
   xmlns:sodipodi="http://sodipodi.sourceforge.net/DTD/sodipodi-0.dtd"
   xmlns:inkscape="http://www.inkscape.org/namespaces/inkscape"
   width="33.942371mm"
   height="43.712406mm"
   viewBox="0 0 33.942371 43.712406"
   version="1.1"
   id="svg5505"
   inkscape:version="1.0.1 (3bc2e813f5, 2020-09-07)"
   sodipodi:docname="favicon.svg">
  <defs
     id="defs5499" />
  <sodipodi:namedview
     id="base"
     pagecolor="#ffffff"
     bordercolor="#666666"
     borderopacity="1.0"
     inkscape:pageopacity="0.0"
     inkscape:pageshadow="2"
     inkscape:zoom="0.35"
     inkscape:cx="201.85734"
     inkscape:cy="108.3204"
     inkscape:document-units="mm"
     inkscape:current-layer="layer1"
     inkscape:document-rotation="0"
     showgrid="false"
     inkscape:window-width="1436"
     inkscape:window-height="1033"
     inkscape:window-x="192"
     inkscape:window-y="0"
     inkscape:window-maximized="0" />
  <metadata
     id="metadata5502">
    <rdf:RDF>
      <cc:Work
         rdf:about="">
        <dc:format>image/svg+xml</dc:format>
        <dc:type
           rdf:resource="http://purl.org/dc/dcmitype/StillImage" />
        <dc:title />
      </cc:Work>
    </rdf:RDF>
  </metadata>
  <g
     inkscape:label="Ebene 1"
     inkscape:groupmode="layer"
     id="layer1"
     transform="translate(-52.425247,-119.50689)">
    <g
       id="g1756"
       transform="matrix(0.00698227,0.05249886,0.08262023,-0.00643782,34.768353,129.82408)"
       style="fill:#597289;fill-opacity:1">
      <path
         style="fill:#597289;fill-opacity:1;stroke-width:0.75"
         d="m 628.65796,175.65796 c -6.17718,6.1875 -11.06249,11.25 -10.85624,11.25 0.20625,0 5.42906,-5.0625 11.60624,-11.25 6.17718,-6.1875 11.06249,-11.25 10.85624,-11.25 -0.20625,0 -5.42906,5.0625 -11.60624,11.25 z m -6.55221,386.79486 -9.54486,9.54486 -3.57647,-3.34641 -3.57646,-3.34642 3.56566,3.73235 3.56567,3.73235 9.9308,-9.93079 c 5.46194,-5.46194 9.76198,-9.9308 9.55566,-9.9308 -0.20633,0 -4.67033,4.29519 -9.92,9.54486 z"
         id="path1768" />
      <path
         style="fill:#597289;fill-opacity:1;stroke-width:0.75"
         d="m 642.49259,161.97046 -2.58463,2.8125 2.81512,-2.58715 2.81511,-2.58717 3.18489,2.96217 3.18488,2.96215 -2.96471,-3.1875 c -1.63059,-1.75312 -3.16751,-3.1875 -3.41538,-3.1875 -0.24786,0 -1.61374,1.26562 -3.03528,2.8125 z m -72.65042,144.625 c 0.036,0.87371 0.21371,1.05142 0.45313,0.45312 0.21665,-0.5414 0.19,-1.18828 -0.0592,-1.4375 -0.24922,-0.24922 -0.42648,0.19376 -0.39391,0.98438 z m 117.75,118.5 c 0.036,0.87371 0.21371,1.05142 0.45312,0.45312 0.21665,-0.5414 0.19002,-1.18827 -0.0592,-1.4375 -0.24923,-0.24922 -0.42648,0.19376 -0.39392,0.98438 z"
         id="path1766" />
      <path
         style="fill:#597289;fill-opacity:1;stroke-width:0.75"
         d="m 569.84217,289.34546 c 0.036,0.87371 0.21371,1.05142 0.45313,0.45312 0.21665,-0.5414 0.19,-1.18828 -0.0592,-1.4375 -0.24922,-0.24922 -0.42648,0.19376 -0.39391,0.98438 z m 117.80921,152.5625 c 0,1.03125 0.17023,1.45312 0.37829,0.9375 0.20806,-0.51563 0.20806,-1.35938 0,-1.875 -0.20806,-0.51563 -0.37829,-0.0937 -0.37829,0.9375 z"
         id="path1764" />
      <path
         style="fill:#597289;fill-opacity:1;stroke-width:0.75"
         d="m 627.73723,227.40796 c 0,1.85625 0.14627,2.61563 0.32503,1.6875 0.17876,-0.92813 0.17876,-2.44687 0,-3.375 -0.17876,-0.92813 -0.32503,-0.16875 -0.32503,1.6875 z m -57.89506,64.1875 c 0.036,0.87371 0.21371,1.05142 0.45313,0.45312 0.21665,-0.5414 0.19,-1.18828 -0.0592,-1.4375 -0.24922,-0.24922 -0.42648,0.19376 -0.39391,0.98438 z m 0.0592,9.3125 c 0,1.03125 0.17023,1.45312 0.37829,0.9375 0.20806,-0.51563 0.20806,-1.35938 0,-1.875 -0.20806,-0.51563 -0.37829,-0.0937 -0.37829,0.9375 z m 117.77779,130.125 c 0.0153,1.2375 0.18338,1.65296 0.37353,0.92323 0.19016,-0.72973 0.17766,-1.74223 -0.0278,-2.25 -0.20545,-0.50778 -0.36103,0.0893 -0.34575,1.32677 z m -57.69194,73.125 c 0,1.85625 0.14627,2.61563 0.32503,1.6875 0.17876,-0.92813 0.17876,-2.44687 0,-3.375 -0.17876,-0.92813 -0.32503,-0.16875 -0.32503,1.6875 z m 6.13544,43.6875 -2.96471,3.1875 3.1875,-2.96471 c 2.96434,-2.75715 3.53215,-3.41029 2.96471,-3.41029 -0.12253,0 -1.55691,1.43438 -3.1875,3.1875 z"
         id="path1762" />
      <path
         style="fill:#597289;fill-opacity:1;stroke-width:0.75"
         d="m 626.77073,178.47046 -8.61277,8.8125 8.8125,-8.61277 c 8.18556,-8.00004 9.15289,-9.01223 8.61277,-9.01223 -0.10986,0 -4.07548,3.96563 -8.8125,8.8125 z m 0.88065,53.4375 c 0,1.03125 0.17023,1.45312 0.37829,0.9375 0.20806,-0.51563 0.20806,-1.35938 0,-1.875 -0.20806,-0.51563 -0.37829,-0.0937 -0.37829,0.9375 z m -57.65391,64.125 c 0.006,2.0625 0.15129,2.81723 0.32368,1.67719 0.17239,-1.14005 0.16778,-2.82755 -0.0102,-3.75 -0.17802,-0.92246 -0.31907,0.0103 -0.31344,2.07281 z m 117.73976,139.875 c 0,1.85625 0.14627,2.61563 0.32503,1.6875 0.17877,-0.92813 0.17877,-2.44687 0,-3.375 -0.17876,-0.92813 -0.32503,-0.16875 -0.32503,1.6875 z m -57.83585,63.75 c 0,1.03125 0.17023,1.45312 0.37829,0.9375 0.20806,-0.51563 0.20806,-1.35938 0,-1.875 -0.20806,-0.51563 -0.37829,-0.0937 -0.37829,0.9375 z m -7.08879,61.3125 -10.33855,10.3125 -2.97054,-3.15846 c -1.6338,-1.73715 -2.97054,-2.90252 -2.97054,-2.58971 0,0.31281 1.35729,1.8941 3.01619,3.51398 l 3.01619,2.94523 10.66802,-10.66802 c 5.86741,-5.86741 10.49922,-10.66802 10.2929,-10.66802 -0.20631,0 -5.02747,4.64062 -10.71367,10.3125 z"
         id="path1760" />
      <path
         style="fill:#597289;fill-opacity:1;stroke-width:0.75"
         d="m 628.42136,177.23272 c -16.93074,17.54042 -23.6324,25.64237 -31.19832,37.71708 -11.70239,18.67624 -22.543,45.32341 -25.48846,62.65282 -1.56134,9.18606 -1.57567,27.69383 -0.0296,38.20909 3.50815,23.85962 8.98269,39.8639 28.64054,83.72778 14.20932,31.70619 24.48364,62.91205 28.39509,86.24347 1.52896,9.12006 1.69525,24.24536 0.35045,31.875 -2.27566,12.9108 -8.38885,27.43097 -16.92204,40.19352 -2.68734,4.01928 -4.88607,7.52254 -4.88607,7.78501 0,0.26247 1.2028,1.6403 2.67289,3.06184 l 2.67288,2.58463 16.65264,-16.875 c 21.1467,-21.42906 30.6629,-34.04581 40.44673,-53.625 7.4286,-14.86595 14.6174,-35.13788 16.60313,-46.81966 1.5729,-9.2532 1.5725,-27.57183 -7.5e-4,-38.54392 -3.23049,-22.52871 -9.90948,-42.2476 -27.10069,-80.01142 -14.90094,-32.7328 -25.81648,-65.4315 -29.91877,-89.625 -1.67731,-9.89201 -1.66371,-26.50316 0.0279,-34.1142 3.04365,-13.69406 8.98876,-27.01345 17.74723,-39.7608 l 4.38015,-6.375 -2.74385,-2.8125 c -1.50912,-1.54688 -2.93164,-2.8125 -3.16115,-2.8125 -0.22952,0 -7.94246,7.79615 -17.13988,17.32476 z"
         id="path1758" />
    </g>
    <g
       id="g1756-9-3-7"
       transform="matrix(0.0481688,-0.00185069,2.1797996e-4,-0.07956575,47.921095,169.45645)"
       style="fill:#e0c496;fill-opacity:1">
      <path
         style="fill:#e0c496;fill-opacity:1;stroke-width:0.75"
         d="m 628.65796,175.65796 c -6.17718,6.1875 -11.06249,11.25 -10.85624,11.25 0.20625,0 5.42906,-5.0625 11.60624,-11.25 6.17718,-6.1875 11.06249,-11.25 10.85624,-11.25 -0.20625,0 -5.42906,5.0625 -11.60624,11.25 z m -6.55221,386.79486 -9.54486,9.54486 -3.57647,-3.34641 -3.57646,-3.34642 3.56566,3.73235 3.56567,3.73235 9.9308,-9.93079 c 5.46194,-5.46194 9.76198,-9.9308 9.55566,-9.9308 -0.20633,0 -4.67033,4.29519 -9.92,9.54486 z"
         id="path1768-7-0-1" />
      <path
         style="fill:#e0c496;fill-opacity:1;stroke-width:0.75"
         d="m 642.49259,161.97046 -2.58463,2.8125 2.81512,-2.58715 2.81511,-2.58717 3.18489,2.96217 3.18488,2.96215 -2.96471,-3.1875 c -1.63059,-1.75312 -3.16751,-3.1875 -3.41538,-3.1875 -0.24786,0 -1.61374,1.26562 -3.03528,2.8125 z m -72.65042,144.625 c 0.036,0.87371 0.21371,1.05142 0.45313,0.45312 0.21665,-0.5414 0.19,-1.18828 -0.0592,-1.4375 -0.24922,-0.24922 -0.42648,0.19376 -0.39391,0.98438 z m 117.75,118.5 c 0.036,0.87371 0.21371,1.05142 0.45312,0.45312 0.21665,-0.5414 0.19002,-1.18827 -0.0592,-1.4375 -0.24923,-0.24922 -0.42648,0.19376 -0.39392,0.98438 z"
         id="path1766-2-7-01" />
      <path
         style="fill:#e0c496;fill-opacity:1;stroke-width:0.75"
         d="m 569.84217,289.34546 c 0.036,0.87371 0.21371,1.05142 0.45313,0.45312 0.21665,-0.5414 0.19,-1.18828 -0.0592,-1.4375 -0.24922,-0.24922 -0.42648,0.19376 -0.39391,0.98438 z m 117.80921,152.5625 c 0,1.03125 0.17023,1.45312 0.37829,0.9375 0.20806,-0.51563 0.20806,-1.35938 0,-1.875 -0.20806,-0.51563 -0.37829,-0.0937 -0.37829,0.9375 z"
         id="path1764-4-7-3" />
      <path
         style="fill:#e0c496;fill-opacity:1;stroke-width:0.75"
         d="m 627.73723,227.40796 c 0,1.85625 0.14627,2.61563 0.32503,1.6875 0.17876,-0.92813 0.17876,-2.44687 0,-3.375 -0.17876,-0.92813 -0.32503,-0.16875 -0.32503,1.6875 z m -57.89506,64.1875 c 0.036,0.87371 0.21371,1.05142 0.45313,0.45312 0.21665,-0.5414 0.19,-1.18828 -0.0592,-1.4375 -0.24922,-0.24922 -0.42648,0.19376 -0.39391,0.98438 z m 0.0592,9.3125 c 0,1.03125 0.17023,1.45312 0.37829,0.9375 0.20806,-0.51563 0.20806,-1.35938 0,-1.875 -0.20806,-0.51563 -0.37829,-0.0937 -0.37829,0.9375 z m 117.77779,130.125 c 0.0153,1.2375 0.18338,1.65296 0.37353,0.92323 0.19016,-0.72973 0.17766,-1.74223 -0.0278,-2.25 -0.20545,-0.50778 -0.36103,0.0893 -0.34575,1.32677 z m -57.69194,73.125 c 0,1.85625 0.14627,2.61563 0.32503,1.6875 0.17876,-0.92813 0.17876,-2.44687 0,-3.375 -0.17876,-0.92813 -0.32503,-0.16875 -0.32503,1.6875 z m 6.13544,43.6875 -2.96471,3.1875 3.1875,-2.96471 c 2.96434,-2.75715 3.53215,-3.41029 2.96471,-3.41029 -0.12253,0 -1.55691,1.43438 -3.1875,3.1875 z"
         id="path1762-9-9-0" />
      <path
         style="fill:#e0c496;fill-opacity:1;stroke-width:0.75"
         d="m 626.77073,178.47046 -8.61277,8.8125 8.8125,-8.61277 c 8.18556,-8.00004 9.15289,-9.01223 8.61277,-9.01223 -0.10986,0 -4.07548,3.96563 -8.8125,8.8125 z m 0.88065,53.4375 c 0,1.03125 0.17023,1.45312 0.37829,0.9375 0.20806,-0.51563 0.20806,-1.35938 0,-1.875 -0.20806,-0.51563 -0.37829,-0.0937 -0.37829,0.9375 z m -57.65391,64.125 c 0.006,2.0625 0.15129,2.81723 0.32368,1.67719 0.17239,-1.14005 0.16778,-2.82755 -0.0102,-3.75 -0.17802,-0.92246 -0.31907,0.0103 -0.31344,2.07281 z m 117.73976,139.875 c 0,1.85625 0.14627,2.61563 0.32503,1.6875 0.17877,-0.92813 0.17877,-2.44687 0,-3.375 -0.17876,-0.92813 -0.32503,-0.16875 -0.32503,1.6875 z m -57.83585,63.75 c 0,1.03125 0.17023,1.45312 0.37829,0.9375 0.20806,-0.51563 0.20806,-1.35938 0,-1.875 -0.20806,-0.51563 -0.37829,-0.0937 -0.37829,0.9375 z m -7.08879,61.3125 -10.33855,10.3125 -2.97054,-3.15846 c -1.6338,-1.73715 -2.97054,-2.90252 -2.97054,-2.58971 0,0.31281 1.35729,1.8941 3.01619,3.51398 l 3.01619,2.94523 10.66802,-10.66802 c 5.86741,-5.86741 10.49922,-10.66802 10.2929,-10.66802 -0.20631,0 -5.02747,4.64062 -10.71367,10.3125 z"
         id="path1760-1-4-4" />
      <path
         style="fill:#e0c496;fill-opacity:1;stroke-width:0.75"
         d="m 442.95753,223.79108 c -16.93074,17.54042 -23.6324,25.64237 -31.19832,37.71708 -11.70239,18.67624 -22.543,45.32341 -25.48846,62.65282 -1.56134,9.18606 -1.57567,27.69383 -0.0296,38.20909 3.50815,23.85962 8.98269,39.8639 28.64054,83.72778 14.20932,31.70619 24.48364,62.91205 28.39509,86.24347 1.52896,9.12006 1.69525,24.24536 0.35045,31.875 -2.27566,12.9108 -8.38885,27.43097 -16.92204,40.19352 -2.68734,4.01928 -4.88607,7.52254 -4.88607,7.78501 0,0.26247 1.2028,1.6403 2.67289,3.06184 l 2.67288,2.58463 16.65264,-16.875 c 21.1467,-21.42906 30.6629,-34.04581 40.44673,-53.625 7.4286,-14.86595 14.6174,-35.13788 16.60313,-46.81966 1.5729,-9.2532 1.5725,-27.57183 -7.5e-4,-38.54392 -3.23049,-22.52871 -9.90948,-42.2476 -27.10069,-80.01142 -14.90094,-32.7328 -25.81648,-65.4315 -29.91877,-89.625 -1.67731,-9.89201 -1.66371,-26.50316 0.0279,-34.1142 3.04365,-13.69406 8.98876,-27.01345 17.74723,-39.7608 l 4.38015,-6.375 -2.74385,-2.8125 c -1.50912,-1.54688 -2.93164,-2.8125 -3.16115,-2.8125 -0.22952,0 -7.94246,7.79615 -17.13988,17.32476 z"
         id="path1758-3-5-2" />
    </g>
    <g
       id="g1756-9-3"
       transform="matrix(0.0374748,-0.0014398,1.6958606e-4,-0.06190131,51.805426,166.35695)"
       style="fill:#e0c496;fill-opacity:1">
      <path
         style="fill:#e0c496;fill-opacity:1;stroke-width:0.75"
         d="m 628.65796,175.65796 c -6.17718,6.1875 -11.06249,11.25 -10.85624,11.25 0.20625,0 5.42906,-5.0625 11.60624,-11.25 6.17718,-6.1875 11.06249,-11.25 10.85624,-11.25 -0.20625,0 -5.42906,5.0625 -11.60624,11.25 z m -6.55221,386.79486 -9.54486,9.54486 -3.57647,-3.34641 -3.57646,-3.34642 3.56566,3.73235 3.56567,3.73235 9.9308,-9.93079 c 5.46194,-5.46194 9.76198,-9.9308 9.55566,-9.9308 -0.20633,0 -4.67033,4.29519 -9.92,9.54486 z"
         id="path1768-7-0" />
      <path
         style="fill:#e0c496;fill-opacity:1;stroke-width:0.75"
         d="m 642.49259,161.97046 -2.58463,2.8125 2.81512,-2.58715 2.81511,-2.58717 3.18489,2.96217 3.18488,2.96215 -2.96471,-3.1875 c -1.63059,-1.75312 -3.16751,-3.1875 -3.41538,-3.1875 -0.24786,0 -1.61374,1.26562 -3.03528,2.8125 z m -72.65042,144.625 c 0.036,0.87371 0.21371,1.05142 0.45313,0.45312 0.21665,-0.5414 0.19,-1.18828 -0.0592,-1.4375 -0.24922,-0.24922 -0.42648,0.19376 -0.39391,0.98438 z m 117.75,118.5 c 0.036,0.87371 0.21371,1.05142 0.45312,0.45312 0.21665,-0.5414 0.19002,-1.18827 -0.0592,-1.4375 -0.24923,-0.24922 -0.42648,0.19376 -0.39392,0.98438 z"
         id="path1766-2-7" />
      <path
         style="fill:#e0c496;fill-opacity:1;stroke-width:0.75"
         d="m 569.84217,289.34546 c 0.036,0.87371 0.21371,1.05142 0.45313,0.45312 0.21665,-0.5414 0.19,-1.18828 -0.0592,-1.4375 -0.24922,-0.24922 -0.42648,0.19376 -0.39391,0.98438 z m 117.80921,152.5625 c 0,1.03125 0.17023,1.45312 0.37829,0.9375 0.20806,-0.51563 0.20806,-1.35938 0,-1.875 -0.20806,-0.51563 -0.37829,-0.0937 -0.37829,0.9375 z"
         id="path1764-4-7" />
      <path
         style="fill:#e0c496;fill-opacity:1;stroke-width:0.75"
         d="m 627.73723,227.40796 c 0,1.85625 0.14627,2.61563 0.32503,1.6875 0.17876,-0.92813 0.17876,-2.44687 0,-3.375 -0.17876,-0.92813 -0.32503,-0.16875 -0.32503,1.6875 z m -57.89506,64.1875 c 0.036,0.87371 0.21371,1.05142 0.45313,0.45312 0.21665,-0.5414 0.19,-1.18828 -0.0592,-1.4375 -0.24922,-0.24922 -0.42648,0.19376 -0.39391,0.98438 z m 0.0592,9.3125 c 0,1.03125 0.17023,1.45312 0.37829,0.9375 0.20806,-0.51563 0.20806,-1.35938 0,-1.875 -0.20806,-0.51563 -0.37829,-0.0937 -0.37829,0.9375 z m 117.77779,130.125 c 0.0153,1.2375 0.18338,1.65296 0.37353,0.92323 0.19016,-0.72973 0.17766,-1.74223 -0.0278,-2.25 -0.20545,-0.50778 -0.36103,0.0893 -0.34575,1.32677 z m -57.69194,73.125 c 0,1.85625 0.14627,2.61563 0.32503,1.6875 0.17876,-0.92813 0.17876,-2.44687 0,-3.375 -0.17876,-0.92813 -0.32503,-0.16875 -0.32503,1.6875 z m 6.13544,43.6875 -2.96471,3.1875 3.1875,-2.96471 c 2.96434,-2.75715 3.53215,-3.41029 2.96471,-3.41029 -0.12253,0 -1.55691,1.43438 -3.1875,3.1875 z"
         id="path1762-9-9" />
      <path
         style="fill:#e0c496;fill-opacity:1;stroke-width:0.75"
         d="m 626.77073,178.47046 -8.61277,8.8125 8.8125,-8.61277 c 8.18556,-8.00004 9.15289,-9.01223 8.61277,-9.01223 -0.10986,0 -4.07548,3.96563 -8.8125,8.8125 z m 0.88065,53.4375 c 0,1.03125 0.17023,1.45312 0.37829,0.9375 0.20806,-0.51563 0.20806,-1.35938 0,-1.875 -0.20806,-0.51563 -0.37829,-0.0937 -0.37829,0.9375 z m -57.65391,64.125 c 0.006,2.0625 0.15129,2.81723 0.32368,1.67719 0.17239,-1.14005 0.16778,-2.82755 -0.0102,-3.75 -0.17802,-0.92246 -0.31907,0.0103 -0.31344,2.07281 z m 117.73976,139.875 c 0,1.85625 0.14627,2.61563 0.32503,1.6875 0.17877,-0.92813 0.17877,-2.44687 0,-3.375 -0.17876,-0.92813 -0.32503,-0.16875 -0.32503,1.6875 z m -57.83585,63.75 c 0,1.03125 0.17023,1.45312 0.37829,0.9375 0.20806,-0.51563 0.20806,-1.35938 0,-1.875 -0.20806,-0.51563 -0.37829,-0.0937 -0.37829,0.9375 z m -7.08879,61.3125 -10.33855,10.3125 -2.97054,-3.15846 c -1.6338,-1.73715 -2.97054,-2.90252 -2.97054,-2.58971 0,0.31281 1.35729,1.8941 3.01619,3.51398 l 3.01619,2.94523 10.66802,-10.66802 c 5.86741,-5.86741 10.49922,-10.66802 10.2929,-10.66802 -0.20631,0 -5.02747,4.64062 -10.71367,10.3125 z"
         id="path1760-1-4" />
      <path
         style="fill:#e0c496;fill-opacity:1;stroke-width:0.75"
         d="m 628.42136,177.23272 c -16.93074,17.54042 -23.6324,25.64237 -31.19832,37.71708 -11.70239,18.67624 -22.543,45.32341 -25.48846,62.65282 -1.56134,9.18606 -1.57567,27.69383 -0.0296,38.20909 3.50815,23.85962 8.98269,39.8639 28.64054,83.72778 14.20932,31.70619 24.48364,62.91205 28.39509,86.24347 1.52896,9.12006 1.69525,24.24536 0.35045,31.875 -2.27566,12.9108 -8.38885,27.43097 -16.92204,40.19352 -2.68734,4.01928 -4.88607,7.52254 -4.88607,7.78501 0,0.26247 1.2028,1.6403 2.67289,3.06184 l 2.67288,2.58463 16.65264,-16.875 c 21.1467,-21.42906 30.6629,-34.04581 40.44673,-53.625 7.4286,-14.86595 14.6174,-35.13788 16.60313,-46.81966 1.5729,-9.2532 1.5725,-27.57183 -7.5e-4,-38.54392 -3.23049,-22.52871 -9.90948,-42.2476 -27.10069,-80.01142 -14.90094,-32.7328 -25.81648,-65.4315 -29.91877,-89.625 -1.67731,-9.89201 -1.66371,-26.50316 0.0279,-34.1142 3.04365,-13.69406 8.98876,-27.01345 17.74723,-39.7608 l 4.38015,-6.375 -2.74385,-2.8125 c -1.50912,-1.54688 -2.93164,-2.8125 -3.16115,-2.8125 -0.22952,0 -7.94246,7.79615 -17.13988,17.32476 z"
         id="path1758-3-5" />
    </g>
    <g
       id="g1756-9-3-6"
       transform="matrix(0.0374748,-0.0014398,1.6958606e-4,-0.06190131,38.513747,166.35695)"
       style="fill:#e0c496;fill-opacity:1">
      <path
         style="fill:#e0c496;fill-opacity:1;stroke-width:0.75"
         d="m 628.65796,175.65796 c -6.17718,6.1875 -11.06249,11.25 -10.85624,11.25 0.20625,0 5.42906,-5.0625 11.60624,-11.25 6.17718,-6.1875 11.06249,-11.25 10.85624,-11.25 -0.20625,0 -5.42906,5.0625 -11.60624,11.25 z m -6.55221,386.79486 -9.54486,9.54486 -3.57647,-3.34641 -3.57646,-3.34642 3.56566,3.73235 3.56567,3.73235 9.9308,-9.93079 c 5.46194,-5.46194 9.76198,-9.9308 9.55566,-9.9308 -0.20633,0 -4.67033,4.29519 -9.92,9.54486 z"
         id="path1768-7-0-9" />
      <path
         style="fill:#e0c496;fill-opacity:1;stroke-width:0.75"
         d="m 642.49259,161.97046 -2.58463,2.8125 2.81512,-2.58715 2.81511,-2.58717 3.18489,2.96217 3.18488,2.96215 -2.96471,-3.1875 c -1.63059,-1.75312 -3.16751,-3.1875 -3.41538,-3.1875 -0.24786,0 -1.61374,1.26562 -3.03528,2.8125 z m -72.65042,144.625 c 0.036,0.87371 0.21371,1.05142 0.45313,0.45312 0.21665,-0.5414 0.19,-1.18828 -0.0592,-1.4375 -0.24922,-0.24922 -0.42648,0.19376 -0.39391,0.98438 z m 117.75,118.5 c 0.036,0.87371 0.21371,1.05142 0.45312,0.45312 0.21665,-0.5414 0.19002,-1.18827 -0.0592,-1.4375 -0.24923,-0.24922 -0.42648,0.19376 -0.39392,0.98438 z"
         id="path1766-2-7-0" />
      <path
         style="fill:#e0c496;fill-opacity:1;stroke-width:0.75"
         d="m 569.84217,289.34546 c 0.036,0.87371 0.21371,1.05142 0.45313,0.45312 0.21665,-0.5414 0.19,-1.18828 -0.0592,-1.4375 -0.24922,-0.24922 -0.42648,0.19376 -0.39391,0.98438 z m 117.80921,152.5625 c 0,1.03125 0.17023,1.45312 0.37829,0.9375 0.20806,-0.51563 0.20806,-1.35938 0,-1.875 -0.20806,-0.51563 -0.37829,-0.0937 -0.37829,0.9375 z"
         id="path1764-4-7-0" />
      <path
         style="fill:#e0c496;fill-opacity:1;stroke-width:0.75"
         d="m 627.73723,227.40796 c 0,1.85625 0.14627,2.61563 0.32503,1.6875 0.17876,-0.92813 0.17876,-2.44687 0,-3.375 -0.17876,-0.92813 -0.32503,-0.16875 -0.32503,1.6875 z m -57.89506,64.1875 c 0.036,0.87371 0.21371,1.05142 0.45313,0.45312 0.21665,-0.5414 0.19,-1.18828 -0.0592,-1.4375 -0.24922,-0.24922 -0.42648,0.19376 -0.39391,0.98438 z m 0.0592,9.3125 c 0,1.03125 0.17023,1.45312 0.37829,0.9375 0.20806,-0.51563 0.20806,-1.35938 0,-1.875 -0.20806,-0.51563 -0.37829,-0.0937 -0.37829,0.9375 z m 117.77779,130.125 c 0.0153,1.2375 0.18338,1.65296 0.37353,0.92323 0.19016,-0.72973 0.17766,-1.74223 -0.0278,-2.25 -0.20545,-0.50778 -0.36103,0.0893 -0.34575,1.32677 z m -57.69194,73.125 c 0,1.85625 0.14627,2.61563 0.32503,1.6875 0.17876,-0.92813 0.17876,-2.44687 0,-3.375 -0.17876,-0.92813 -0.32503,-0.16875 -0.32503,1.6875 z m 6.13544,43.6875 -2.96471,3.1875 3.1875,-2.96471 c 2.96434,-2.75715 3.53215,-3.41029 2.96471,-3.41029 -0.12253,0 -1.55691,1.43438 -3.1875,3.1875 z"
         id="path1762-9-9-1" />
      <path
         style="fill:#e0c496;fill-opacity:1;stroke-width:0.75"
         d="m 626.77073,178.47046 -8.61277,8.8125 8.8125,-8.61277 c 8.18556,-8.00004 9.15289,-9.01223 8.61277,-9.01223 -0.10986,0 -4.07548,3.96563 -8.8125,8.8125 z m 0.88065,53.4375 c 0,1.03125 0.17023,1.45312 0.37829,0.9375 0.20806,-0.51563 0.20806,-1.35938 0,-1.875 -0.20806,-0.51563 -0.37829,-0.0937 -0.37829,0.9375 z m -57.65391,64.125 c 0.006,2.0625 0.15129,2.81723 0.32368,1.67719 0.17239,-1.14005 0.16778,-2.82755 -0.0102,-3.75 -0.17802,-0.92246 -0.31907,0.0103 -0.31344,2.07281 z m 117.73976,139.875 c 0,1.85625 0.14627,2.61563 0.32503,1.6875 0.17877,-0.92813 0.17877,-2.44687 0,-3.375 -0.17876,-0.92813 -0.32503,-0.16875 -0.32503,1.6875 z m -57.83585,63.75 c 0,1.03125 0.17023,1.45312 0.37829,0.9375 0.20806,-0.51563 0.20806,-1.35938 0,-1.875 -0.20806,-0.51563 -0.37829,-0.0937 -0.37829,0.9375 z m -7.08879,61.3125 -10.33855,10.3125 -2.97054,-3.15846 c -1.6338,-1.73715 -2.97054,-2.90252 -2.97054,-2.58971 0,0.31281 1.35729,1.8941 3.01619,3.51398 l 3.01619,2.94523 10.66802,-10.66802 c 5.86741,-5.86741 10.49922,-10.66802 10.2929,-10.66802 -0.20631,0 -5.02747,4.64062 -10.71367,10.3125 z"
         id="path1760-1-4-9" />
      <path
         style="fill:#e0c496;fill-opacity:1;stroke-width:0.75"
         d="m 628.42136,177.23272 c -16.93074,17.54042 -23.6324,25.64237 -31.19832,37.71708 -11.70239,18.67624 -22.543,45.32341 -25.48846,62.65282 -1.56134,9.18606 -1.57567,27.69383 -0.0296,38.20909 3.50815,23.85962 8.98269,39.8639 28.64054,83.72778 14.20932,31.70619 24.48364,62.91205 28.39509,86.24347 1.52896,9.12006 1.69525,24.24536 0.35045,31.875 -2.27566,12.9108 -8.38885,27.43097 -16.92204,40.19352 -2.68734,4.01928 -4.88607,7.52254 -4.88607,7.78501 0,0.26247 1.2028,1.6403 2.67289,3.06184 l 2.67288,2.58463 16.65264,-16.875 c 21.1467,-21.42906 30.6629,-34.04581 40.44673,-53.625 7.4286,-14.86595 14.6174,-35.13788 16.60313,-46.81966 1.5729,-9.2532 1.5725,-27.57183 -7.5e-4,-38.54392 -3.23049,-22.52871 -9.90948,-42.2476 -27.10069,-80.01142 -14.90094,-32.7328 -25.81648,-65.4315 -29.91877,-89.625 -1.67731,-9.89201 -1.66371,-26.50316 0.0279,-34.1142 3.04365,-13.69406 8.98876,-27.01345 17.74723,-39.7608 l 4.38015,-6.375 -2.74385,-2.8125 c -1.50912,-1.54688 -2.93164,-2.8125 -3.16115,-2.8125 -0.22952,0 -7.94246,7.79615 -17.13988,17.32476 z"
         id="path1758-3-5-3" />
    </g>
  </g>
</svg>
